<?xml version="1.0" encoding="UTF-8" standalone="no"?>
<!-- Created with Inkscape (http://www.inkscape.org/) -->

<svg
   xmlns:dc="http://purl.org/dc/elements/1.1/"
   xmlns:cc="http://creativecommons.org/ns#"
   xmlns:rdf="http://www.w3.org/1999/02/22-rdf-syntax-ns#"
   xmlns:svg="http://www.w3.org/2000/svg"
   xmlns="http://www.w3.org/2000/svg"
   xmlns:sodipodi="http://sodipodi.sourceforge.net/DTD/sodipodi-0.dtd"
   xmlns:inkscape="http://www.inkscape.org/namespaces/inkscape"
   width="256"
   height="256"
   id="svg4874"
   version="1.1"
   inkscape:version="0.92.2 (5c3e80d, 2017-08-06)"
   viewBox="0 0 256 256"
   sodipodi:docname="insert_row_below.svg"
   inkscape:export-filename="C:\Users\User\qwatson\qwatson\ressources\icons_png\insert_row_below.png"
   inkscape:export-xdpi="96"
   inkscape:export-ydpi="96">
  <defs
     id="defs4876" />
  <sodipodi:namedview
     id="base"
     pagecolor="#ffffff"
     bordercolor="#666666"
     borderopacity="1.0"
     inkscape:pageopacity="0.0"
     inkscape:pageshadow="2"
     inkscape:zoom="0.90035383"
     inkscape:cx="212.802"
     inkscape:cy="341.58301"
     inkscape:document-units="px"
     inkscape:current-layer="g5283"
     showgrid="false"
     showborder="true"
     fit-margin-top="0"
     fit-margin-left="0"
     fit-margin-right="0"
     fit-margin-bottom="0"
     inkscape:snap-bbox="true"
     inkscape:bbox-paths="true"
     inkscape:bbox-nodes="true"
     inkscape:snap-bbox-edge-midpoints="true"
     inkscape:snap-bbox-midpoints="true"
     inkscape:object-paths="true"
     inkscape:snap-intersection-paths="true"
     inkscape:object-nodes="true"
     inkscape:snap-smooth-nodes="true"
     inkscape:snap-midpoints="true"
     inkscape:snap-object-midpoints="true"
     inkscape:snap-center="true"
     showguides="true"
     inkscape:guide-bbox="true"
     inkscape:window-width="1920"
     inkscape:window-height="1017"
     inkscape:window-x="-8"
     inkscape:window-y="-8"
     inkscape:window-maximized="1"
     inkscape:snap-global="false">
    <inkscape:grid
       type="xygrid"
       id="grid5451"
       empspacing="6"
       visible="true"
       enabled="true"
       snapvisiblegridlinesonly="true" />
  </sodipodi:namedview>
  <metadata
     id="metadata4879">
    <rdf:RDF>
      <cc:Work
         rdf:about="">
        <dc:format>image/svg+xml</dc:format>
        <dc:type
           rdf:resource="http://purl.org/dc/dcmitype/StillImage" />
        <dc:title />
      </cc:Work>
    </rdf:RDF>
  </metadata>
  <g
     inkscape:label="Layer 1"
     inkscape:groupmode="layer"
     id="layer1"
     transform="translate(67.857146,81.494962)">
    <g
       transform="matrix(0,-1,-1,0,373.50506,516.50504)"
       id="g4845"
       style="display:inline">
      <g
         id="g5283"
         transform="matrix(0,-1,-1,0,-293.63782,2219.3622)">
        <g
           id="g936"
           transform="translate(720.96547,450.79976)">
          <rect
             transform="scale(-1,1)"
             y="-1415.9862"
             x="-1765.6495"
             height="148.10735"
             width="234.00002"
             id="rect822-2-9-1-2-2"
             style="display:inline;opacity:1;fill:none;fill-opacity:1;stroke:#282828;stroke-width:20.00000191;stroke-miterlimit:10;stroke-dasharray:none;stroke-dashoffset:0;stroke-opacity:1" />
          <path
             sodipodi:nodetypes="cscscccsccccccccccccscsccc"
             inkscape:connector-curvature="0"
             id="rect822-2-9-1-2-1"
             d="m 1640.8478,-1384.052 v 16.6153 c 0,15.8762 -0.049,16.6376 -1.0426,17.1683 -0.6512,0.3475 -7.0927,0.5567 -17.2139,0.5567 h -16.1748 v 8.0468 8.0506 h 16.5692 c 12.1709,0 16.7397,0.1682 17.2139,0.6411 0.4744,0.4725 0.6482,4.9717 0.6482,16.9006 v 0 16.2595 h 8.0625 8.0628 l 0.1443,-16.7668 0.1407,-16.7667 16.8122,-0.1445 16.8122,-0.1409 v -8.0399 -8.0398 h -16.0936 c -8.8527,0 -16.4814,-0.1485 -16.9496,-0.3277 -0.7519,-0.2873 -0.8488,-2.3042 -0.8488,-17.1684 v -16.8442 h -8.0698 z"
             style="display:inline;opacity:1;fill:#282828;fill-opacity:1;stroke:#282828;stroke-width:9.81371784;stroke-miterlimit:10;stroke-dasharray:none;stroke-dashoffset:0;stroke-opacity:1" />
          <path
             sodipodi:nodetypes="cccccccc"
             inkscape:connector-curvature="0"
             id="path4855"
             d="m 1648.6489,-1169.9862 31.428,-33.9924 31.4259,-33.9934 h -62.8539 -62.8527 l 2.0226,2.1889 29.4036,31.8045 z"
             style="color:#000000;font-style:normal;font-variant:normal;font-weight:normal;font-stretch:normal;font-size:medium;line-height:normal;font-family:sans-serif;font-variant-ligatures:normal;font-variant-position:normal;font-variant-caps:normal;font-variant-numeric:normal;font-variant-alternates:normal;font-feature-settings:normal;text-indent:0;text-align:start;text-decoration:none;text-decoration-line:none;text-decoration-style:solid;text-decoration-color:#000000;letter-spacing:normal;word-spacing:normal;text-transform:none;writing-mode:lr-tb;direction:ltr;text-orientation:mixed;dominant-baseline:auto;baseline-shift:baseline;text-anchor:start;white-space:normal;shape-padding:0;clip-rule:nonzero;display:inline;overflow:visible;visibility:visible;opacity:1;isolation:auto;mix-blend-mode:normal;color-interpolation:sRGB;color-interpolation-filters:linearRGB;solid-color:#000000;solid-opacity:1;vector-effect:none;fill:#282828;fill-opacity:1;fill-rule:nonzero;stroke:none;stroke-width:2.00745225;stroke-linecap:square;stroke-linejoin:miter;stroke-miterlimit:10;stroke-dasharray:none;stroke-dashoffset:0;stroke-opacity:1;color-rendering:auto;image-rendering:auto;shape-rendering:auto;text-rendering:auto;enable-background:accumulate" />
        </g>
        <g
           id="g925">
          <path
             sodipodi:nodetypes="cccccccc"
             inkscape:connector-curvature="0"
             id="path4855-7-8"
             d="m 2707.8574,-869.67669 32.3797,-24.51865 32.3776,-24.5194 h -64.7573 -64.756 l 2.0838,1.57886 30.294,22.94054 z"
             style="color:#000000;font-style:normal;font-variant:normal;font-weight:normal;font-stretch:normal;font-size:medium;line-height:normal;font-family:sans-serif;font-variant-ligatures:normal;font-variant-position:normal;font-variant-caps:normal;font-variant-numeric:normal;font-variant-alternates:normal;font-feature-settings:normal;text-indent:0;text-align:start;text-decoration:none;text-decoration-line:none;text-decoration-style:solid;text-decoration-color:#000000;letter-spacing:normal;word-spacing:normal;text-transform:none;writing-mode:lr-tb;direction:ltr;text-orientation:mixed;dominant-baseline:auto;baseline-shift:baseline;text-anchor:start;white-space:normal;shape-padding:0;clip-rule:nonzero;display:inline;overflow:visible;visibility:visible;opacity:1;isolation:auto;mix-blend-mode:normal;color-interpolation:sRGB;color-interpolation-filters:linearRGB;solid-color:#000000;solid-opacity:1;vector-effect:none;fill:#282828;fill-opacity:1;fill-rule:nonzero;stroke:none;stroke-width:1.73053706;stroke-linecap:square;stroke-linejoin:miter;stroke-miterlimit:10;stroke-dasharray:none;stroke-dashoffset:0;stroke-opacity:1;color-rendering:auto;image-rendering:auto;shape-rendering:auto;text-rendering:auto;enable-background:accumulate" />
          <rect
             style="display:inline;opacity:1;fill:#00ffcc;fill-opacity:1;stroke:#00ffcc;stroke-width:10.33083534;stroke-miterlimit:10;stroke-dasharray:none;stroke-dashoffset:0;stroke-opacity:1"
             id="rect822-2-9-1-2-2-3-9-3-8-8-4"
             width="215.77496"
             height="28.303102"
             x="-2816.1384"
             y="955.37024"
             transform="scale(-1)" />
          <path
             sodipodi:nodetypes="cssccsssscccccccccccccccccccccccccccccccc"
             id="path4-5-2"
             d="m 2581.6419,-1046.8302 c 0.5874,-6.9827 6.2226,-12.8527 13.3137,-12.8527 h 225.8116 c 7.0901,0 12.7308,5.87 13.3261,12.8527 h 0.226 v 97.60209 c 0,7.48437 -6.0746,13.55772 -13.5577,13.55772 h -225.8071 c -7.4845,0 -13.5577,-6.07449 -13.5577,-13.55772 v -97.60209 h 0.2485 m 177.088,95.25338 h 59.6875 v -36.13088 h -59.6875 v 36.13088 m 0,-52.95058 h 59.6875 v -37.4112 h -59.6875 v 37.4112 m -81.7876,52.95058 h 63.8416 v -36.13088 h -63.8416 v 36.13088 m 0,-52.95058 h 63.8416 v -37.4112 h -63.8416 v 37.4112 m -79.6346,52.95058 h 61.6887 v -36.13088 h -61.6887 v 36.13088 m 0,-52.95058 h 61.6887 v -37.4112 h -61.6887 v 37.4112"
             style="display:inline;fill:#282828;fill-opacity:1;stroke-width:5.48667908;stroke-miterlimit:10;stroke-dasharray:none"
             inkscape:connector-curvature="0" />
        </g>
        <rect
           transform="scale(-1)"
           y="1310.7692"
           x="-2750.0344"
           height="38.854511"
           width="215.77496"
           id="rect822-2-9-1-2-2-3-9-3-8-8-52"
           style="display:inline;opacity:1;fill:#00ffcc;fill-opacity:1;stroke:#00ffcc;stroke-width:10.33083534;stroke-miterlimit:10;stroke-dasharray:none;stroke-dashoffset:0;stroke-opacity:1" />
        <path
           inkscape:connector-curvature="0"
           style="fill:#282828;fill-opacity:1;stroke-width:0.40382764"
           d="m 2515.0411,-1251.0845 c 0.6879,8.1763 7.2861,15.0496 15.5894,15.0496 h 222.255 c 8.3019,0 14.9068,-6.8733 15.6038,-15.0496 h 0.2647 v -155.2504 c 0,-8.7636 -7.1129,-15.875 -15.8751,-15.875 h -222.2498 c -8.7636,0 -15.8751,7.1127 -15.8751,15.875 v 155.2504 h 0.2911 m 174.3428,-155.2504 h 63.5003 v 40.2052 h -63.5003 v -40.2052 m 0,54.7601 h 63.5003 v 41.5239 h -63.5003 v -41.5239 m 0,57.399 h 63.5003 v 40.2053 h -63.5003 v -40.2053 m -79.3741,-112.1591 h 63.5003 v 40.2052 h -63.5003 v -40.2052 m 0,54.7601 h 63.5003 v 41.5239 h -63.5003 v -41.5239 m 0,57.399 h 63.5003 v 40.2053 h -63.5003 v -40.2053 m -79.3754,-112.1591 h 63.5017 v 40.2052 h -63.5017 v -40.2052 m 0,54.7601 h 63.5017 v 41.5239 h -63.5017 v -41.5239 m 0,57.399 h 63.5017 v 40.2053 h -63.5017 v -40.2053"
           id="path4"
           sodipodi:nodetypes="cssccssssccccccccccccccccccccccccccccccccccccccccccccccc" />
        <g
           id="g865"
           transform="matrix(1,0,0,-1,735.75402,-2057.8478)">
          <path
             sodipodi:nodetypes="cccccccc"
             inkscape:connector-curvature="0"
             id="path4855-7-6"
             d="m 1905.9993,-891.63782 32.3797,24.51865 32.3776,24.5194 h -64.7573 -64.756 l 2.0838,-1.57886 30.294,-22.94054 z"
             style="color:#000000;font-style:normal;font-variant:normal;font-weight:normal;font-stretch:normal;font-size:medium;line-height:normal;font-family:sans-serif;font-variant-ligatures:normal;font-variant-position:normal;font-variant-caps:normal;font-variant-numeric:normal;font-variant-alternates:normal;font-feature-settings:normal;text-indent:0;text-align:start;text-decoration:none;text-decoration-line:none;text-decoration-style:solid;text-decoration-color:#000000;letter-spacing:normal;word-spacing:normal;text-transform:none;writing-mode:lr-tb;direction:ltr;text-orientation:mixed;dominant-baseline:auto;baseline-shift:baseline;text-anchor:start;white-space:normal;shape-padding:0;clip-rule:nonzero;display:inline;overflow:visible;visibility:visible;opacity:1;isolation:auto;mix-blend-mode:normal;color-interpolation:sRGB;color-interpolation-filters:linearRGB;solid-color:#000000;solid-opacity:1;vector-effect:none;fill:#282828;fill-opacity:1;fill-rule:nonzero;stroke:none;stroke-width:1.73053706;stroke-linecap:square;stroke-linejoin:miter;stroke-miterlimit:10;stroke-dasharray:none;stroke-dashoffset:0;stroke-opacity:1;color-rendering:auto;image-rendering:auto;shape-rendering:auto;text-rendering:auto;enable-background:accumulate" />
        </g>
        <g
           id="g931"
           transform="translate(1090.0872,-749.23863)">
          <rect
             transform="scale(-1)"
             y="496.05975"
             x="-1307.0552"
             height="47.097076"
             width="219.53128"
             id="rect822-2-9-1-2-2-3-9-3-8-8-51-7"
             style="display:inline;opacity:1;fill:#b3b3b3;fill-opacity:1;stroke:#b3b3b3;stroke-width:13.49580097;stroke-miterlimit:10;stroke-dasharray:none;stroke-dashoffset:0;stroke-opacity:1" />
          <path
             sodipodi:nodetypes="cccccccc"
             inkscape:connector-curvature="0"
             id="path4855-7-6-4-0"
             d="m 1189.6143,-398.94832 24.584,-28.15487 24.5821,-28.15541 h -49.1661 -49.1648 l 1.5822,1.81216 23.0001,26.34271 z"
             style="color:#000000;font-style:normal;font-variant:normal;font-weight:normal;font-stretch:normal;font-size:medium;line-height:normal;font-family:sans-serif;font-variant-ligatures:normal;font-variant-position:normal;font-variant-caps:normal;font-variant-numeric:normal;font-variant-alternates:normal;font-feature-settings:normal;text-indent:0;text-align:start;text-decoration:none;text-decoration-line:none;text-decoration-style:solid;text-decoration-color:#000000;letter-spacing:normal;word-spacing:normal;text-transform:none;writing-mode:lr-tb;direction:ltr;text-orientation:mixed;dominant-baseline:auto;baseline-shift:baseline;text-anchor:start;white-space:normal;shape-padding:0;clip-rule:nonzero;display:inline;overflow:visible;visibility:visible;opacity:1;isolation:auto;mix-blend-mode:normal;color-interpolation:sRGB;color-interpolation-filters:linearRGB;solid-color:#000000;solid-opacity:1;vector-effect:none;fill:#282828;fill-opacity:1;fill-rule:nonzero;stroke:none;stroke-width:2.2639308;stroke-linecap:square;stroke-linejoin:miter;stroke-miterlimit:10;stroke-dasharray:none;stroke-dashoffset:0;stroke-opacity:1;color-rendering:auto;image-rendering:auto;shape-rendering:auto;text-rendering:auto;enable-background:accumulate" />
          <path
             style="display:inline;fill:#282828;fill-opacity:1;stroke-width:5.5100832;stroke-miterlimit:10;stroke-dasharray:none"
             d="m 1085.7855,-480.45822 c -7.5164,0 -13.6144,-6.10135 -13.6144,-13.61649 v -53.00144 h 0.2449 c 0.5892,-7.01263 6.2499,-12.90837 13.3712,-12.90837 h 226.7738 c 7.1204,0 12.7852,5.89574 13.3831,12.90837 h 0.227 v 53.00144 c 0,7.5163 -6.0996,13.61649 -13.6146,13.61649 z m 4.5838,-16.44268 h 60.8416 v -46.64094 h -60.8416 z m 78.2786,0 h 62.1619 v -46.64094 h -62.1619 z m 79.5989,0 h 59.7268 v -46.64094 h -59.7268 z"
             id="path4-5-8-5"
             inkscape:connector-curvature="0"
             sodipodi:nodetypes="ssccssccsssccccccccccccccc" />
          <path
             style="display:inline;fill:#282828;fill-opacity:1;stroke-width:5.5100832;stroke-miterlimit:10;stroke-dasharray:none"
             d="m 1085.7855,-304.44279 c -7.5164,0 -13.6144,-6.10134 -13.6144,-13.61648 v -53.00145 h 0.2449 c 0.5892,-7.01262 6.2499,-12.90836 13.3712,-12.90836 h 226.7738 c 7.1204,0 12.7852,5.89574 13.3831,12.90836 h 0.227 v 53.00145 c 0,7.51629 -6.0996,13.61648 -13.6146,13.61648 z m 4.5838,-16.44268 h 59.2343 v -46.64093 h -59.2343 z m 76.6713,0 h 66.5546 v -46.64093 h -66.5546 z m 83.9916,0 h 56.9414 v -46.64093 h -56.9414 z"
             id="path4-5-8-5-8"
             inkscape:connector-curvature="0"
             sodipodi:nodetypes="ssccssccsssccccccccccccccc" />
        </g>
        <g
           style="fill:#282828;fill-opacity:1;stroke-width:1.28436136"
           transform="matrix(-0.74505341,0,0,-0.74505341,4185.9276,-1297.7027)"
           id="g869">
          <path
             style="fill:#282828;fill-opacity:1;stroke:#ff0000;stroke-width:23.11850357;stroke-linecap:round;stroke-linejoin:miter;stroke-miterlimit:4;stroke-dasharray:none;stroke-opacity:1"
             d="m 2109.2587,-799.46231 v 65.5298"
             id="path850"
             inkscape:connector-curvature="0" />
          <path
             style="display:inline;fill:#282828;fill-opacity:1;stroke:#ff0000;stroke-width:23.11850357;stroke-linecap:round;stroke-linejoin:miter;stroke-miterlimit:4;stroke-dasharray:none;stroke-opacity:1"
             d="m 2142.0236,-766.69741 h -65.5298"
             id="path850-5"
             inkscape:connector-curvature="0" />
        </g>
        <g
           transform="rotate(180,1906,-760.86567)"
           id="g907">
          <rect
             style="display:inline;opacity:1;fill:#b3b3b3;fill-opacity:1;stroke:#b3b3b3;stroke-width:13.49580097;stroke-miterlimit:10;stroke-dasharray:none;stroke-dashoffset:0;stroke-opacity:1"
             id="rect822-2-9-1-2-2-3-9-3-8-8-51-7-4"
             width="219.53128"
             height="47.097076"
             x="-2013.884"
             y="-782.25519"
             transform="scale(-1,1)" />
          <path
             sodipodi:nodetypes="ssccssccsssccccccccccccccc"
             inkscape:connector-curvature="0"
             id="path4-5-8-5-6"
             d="m 1792.6144,-797.85667 c -7.5164,0 -13.6144,6.10135 -13.6144,13.61649 v 53.00144 h 0.2449 c 0.5892,7.01263 6.2499,12.90837 13.3712,12.90837 h 226.7738 c 7.1204,0 12.7852,-5.89574 13.3831,-12.90837 H 2033 v -53.00144 c 0,-7.5163 -6.0996,-13.61649 -13.6146,-13.61649 z m 4.5838,16.44268 h 60.8416 v 46.64094 h -60.8416 z m 78.2786,0 h 62.1619 v 46.64094 h -62.1619 z m 79.5989,0 h 59.7268 v 46.64094 h -59.7268 z"
             style="display:inline;fill:#282828;fill-opacity:1;stroke-width:5.5100832;stroke-miterlimit:10;stroke-dasharray:none" />
        </g>
        <path
           style="display:inline;fill:#282828;fill-opacity:1;stroke-width:5.5100832;stroke-miterlimit:10;stroke-dasharray:none"
           d="m 2019.3856,-812.11152 c 7.5164,0 13.6144,-6.10135 13.6144,-13.61649 v -53.00144 h -0.2449 c -0.5892,-7.01263 -6.2499,-12.90837 -13.3712,-12.90837 h -226.7738 c -7.1204,0 -12.7852,5.89574 -13.3831,12.90837 H 1779 v 53.00144 c 0,7.5163 6.0996,13.61649 13.6146,13.61649 z m -4.5838,-16.44268 h -60.8416 v -46.64094 h 60.8416 z m -78.2786,0 h -62.1619 v -46.64094 h 62.1619 z m -79.5989,0 h -59.7268 v -46.64094 h 59.7268 z"
           id="path4-5-8-5-6-1"
           inkscape:connector-curvature="0"
           sodipodi:nodetypes="ssccssccsssccccccccccccccc" />
        <path
           style="display:inline;fill:#282828;fill-opacity:1;stroke-width:5.5100832;stroke-miterlimit:10;stroke-dasharray:none"
           d="m 2019.3856,-635.63782 c 7.5164,0 13.6144,-6.10134 13.6144,-13.61648 v -53.00145 h -0.2449 c -0.5892,-7.01262 -6.2499,-12.90836 -13.3712,-12.90836 h -149.4153 c -7.1204,0 -12.7852,5.89574 -13.3831,12.90836 h -0.227 v 53.00145 c 0,7.51629 6.0996,13.61648 13.6146,13.61648 z m -4.5838,-16.44268 h -60.805 v -46.64093 h 60.805 z m -78.242,0 h -62.2351 v -46.64093 h 62.2351 z"
           id="path4-5-8-5-8-0"
           inkscape:connector-curvature="0"
           sodipodi:nodetypes="ssccssccssscccccccccc" />
        <path
           style="color:#000000;font-style:normal;font-variant:normal;font-weight:normal;font-stretch:normal;font-size:medium;line-height:normal;font-family:sans-serif;font-variant-ligatures:normal;font-variant-position:normal;font-variant-caps:normal;font-variant-numeric:normal;font-variant-alternates:normal;font-feature-settings:normal;text-indent:0;text-align:start;text-decoration:none;text-decoration-line:none;text-decoration-style:solid;text-decoration-color:#000000;letter-spacing:normal;word-spacing:normal;text-transform:none;writing-mode:lr-tb;direction:ltr;text-orientation:mixed;dominant-baseline:auto;baseline-shift:baseline;text-anchor:start;white-space:normal;shape-padding:0;clip-rule:nonzero;display:inline;overflow:visible;visibility:visible;opacity:1;isolation:auto;mix-blend-mode:normal;color-interpolation:sRGB;color-interpolation-filters:linearRGB;solid-color:#000000;solid-opacity:1;vector-effect:none;fill:#ff0000;fill-opacity:1;fill-rule:nonzero;stroke:none;stroke-width:1.83097434;stroke-linecap:square;stroke-linejoin:miter;stroke-miterlimit:10;stroke-dasharray:none;stroke-dashoffset:0;stroke-opacity:1;color-rendering:auto;image-rendering:auto;shape-rendering:auto;text-rendering:auto;enable-background:accumulate"
           d="M 1824.5414,-675.40043 1801.7709,-695.28297 1779,-715.16396 v 39.76353 39.76247 l 1.4656,-1.27963 21.3049,-18.60154 z"
           id="path4855-7-6-4-0-5"
           inkscape:connector-curvature="0"
           sodipodi:nodetypes="cccccccc" />
        <path
           id="path4622-8"
           style="color:#000000;fill:#00aa00;fill-opacity:1;stroke:none;stroke-width:3.10551596"
           d="m 2385.7789,-695.61911 v 129.43791 c 0,0 61.3402,-26.53322 114.9848,-64.75932 0,-0.0531 -0.05,-0.0531 -0.05,-0.0531 l -0.056,-0.0531 -0.056,-0.0531 c -0.05,-0.0531 -0.05,-0.0531 -0.05,-0.0531 -56.5825,-39.44629 -114.9072,-64.51712 -114.9072,-64.51712 z"
           inkscape:connector-curvature="0" />
      </g>
    </g>
  </g>
</svg>
